<?xml version="1.0" encoding="UTF-8"?>
<svg width="10px" height="12px" viewBox="0 0 10 12" version="1.1" xmlns="http://www.w3.org/2000/svg" xmlns:xlink="http://www.w3.org/1999/xlink">
    <!-- Generator: Sketch 49.2 (51160) - http://www.bohemiancoding.com/sketch -->
    <title>Icon</title>
    <desc>Created with Sketch.</desc>
    <defs></defs>
    <g id="Flow" stroke="none" stroke-width="1" fill="none" fill-rule="evenodd">
        <g id="3A-Payment---card" transform="translate(-899.000000, -758.000000)" fill="#6772E5">
            <g id="Group-10" transform="translate(229.000000, 743.000000)">
                <g id="ActionIcon/Clipboard/Default" transform="translate(670.000000, 12.000000)">
                    <g id="Group-2">
                        <path d="M9.2749658,4.44 L9.6,4.44 C9.8209139,4.44 10,4.6190861 10,4.84 L10,14.6 C10,14.8209139 9.8209139,15 9.6,15 L0.4,15 C0.1790861,15 -2.84570012e-17,14.8209139 -5.55111512e-17,14.6 L5.55111512e-17,4.84 C2.84570012e-17,4.6190861 0.1790861,4.44 0.4,4.44 L0.779753762,4.44 L1.88454172,4.44 C2.10545562,4.44 2.28454172,4.6190861 2.28454172,4.84 L2.28454172,6.38871496 C2.28454172,6.60962886 2.46362782,6.78871496 2.68454172,6.78871496 L7.4248974,6.78871496 C7.6458113,6.78871496 7.8248974,6.60962886 7.8248974,6.38871496 L7.8248974,4.84 C7.8248974,4.6190861 8.0039835,4.44 8.2248974,4.44 L9.2749658,4.44 Z M6.6,3.91494585 C6.8209139,3.91494585 7,4.09403195 7,4.31494585 L7,5.48 C7,5.7009139 6.8209139,5.88 6.6,5.88 L3.4,5.88 C3.1790861,5.88 3,5.7009139 3,5.48 L3,4.31494585 C3,4.09403195 3.1790861,3.91494585 3.4,3.91494585 L3.65333333,3.91494585 C3.87424723,3.91494585 4.05333333,3.73585975 4.05333333,3.51494585 L4.05333333,3.4 C4.05333333,3.1790861 4.23241943,3 4.45333333,3 L5.48,3 C5.7009139,3 5.88,3.1790861 5.88,3.4 L5.88,3.51494585 C5.88,3.73585975 6.0590861,3.91494585 6.28,3.91494585 L6.6,3.91494585 Z M1.5,12.6 C1.5,12.8573438 1.71656452,13.08 1.98371039,13.08 L4.71628966,13.08 C4.9796287,13.08 5.20000005,12.8650967 5.20000005,12.6 C5.20000005,12.3426562 4.98343553,12.12 4.71628966,12.12 L1.98371039,12.12 C1.72037134,12.12 1.5,12.3349033 1.5,12.6 Z M1.5,10.92 C1.5,11.1773438 1.7125106,11.4 1.97465572,11.4 L7.62534419,11.4 C7.8804061,11.4 8.0999999,11.1850967 8.0999999,10.92 C8.0999999,10.6626562 7.8874893,10.44 7.62534419,10.44 L1.97465572,10.44 C1.71959381,10.44 1.5,10.6549033 1.5,10.92 Z M1.5,9.24 C1.5,9.49734375 1.71758011,9.72 1.98597878,9.72 L6.71402103,9.72 C6.98351336,9.72 7.19999981,9.50509668 7.19999981,9.24 C7.19999981,8.98265625 6.9824197,8.76 6.71402103,8.76 L1.98597878,8.76 C1.71648645,8.76 1.5,8.97490332 1.5,9.24 Z" id="Icon"></path>
                    </g>
                </g>
            </g>
        </g>
    </g>
</svg>