<?xml version="1.0" encoding="UTF-8"?>
<svg width="16px" height="16px" viewBox="0 0 16 16" version="1.1" xmlns="http://www.w3.org/2000/svg" xmlns:xlink="http://www.w3.org/1999/xlink">
    <!-- Generator: Sketch 49.2 (51160) - http://www.bohemiancoding.com/sketch -->
    <title>Icon/info/blue</title>
    <desc>Created with Sketch.</desc>
    <defs></defs>
    <g id="Flow" stroke="none" stroke-width="1" fill="none" fill-rule="evenodd">
        <g id="3A-Payment---card" transform="translate(-249.000000, -757.000000)" fill="#6772E5">
            <g id="Group-10" transform="translate(229.000000, 743.000000)">
                <g id="Icon/info/blue" transform="translate(20.000000, 14.000000)">
                    <path d="M0,8 C0,12.4190476 3.58095238,16 8,16 C12.4190476,16 16,12.4190476 16,8 C16,3.58095238 12.4190476,1.69176842e-15 8,1.69176842e-15 C3.58095238,1.69176842e-15 0,3.58095238 0,8 Z" id="20" fill-opacity="0.2"></path>
                    <path d="M8.3255814,10.8869565 C8.23255814,11.3043478 8.88372093,11.4434783 9.44186047,10.9565217 L9.72093023,11.1652174 C9.34883721,11.6521739 8.79069767,12 7.86046512,12 C6.93023256,12 6.55813953,11.6521739 6.55813953,11.1652174 C6.55813953,11.026087 6.55813953,10.8869565 6.65116279,10.6086957 L7.30232558,8.03478261 C7.39534884,7.47826087 6.74418605,7.40869565 6.27906977,7.82608696 L6,7.6173913 C6.27906977,7.2 6.93023256,6.85217391 7.76744186,6.85217391 C8.69767442,6.85217391 9.06976744,7.2 9.06976744,7.75652174 C9.06976744,7.89565217 9.06976744,8.10434783 8.97674419,8.24347826 L8.3255814,10.8869565 Z M8.79069767,5.87826087 C8.13953488,5.87826087 7.58139535,5.53043478 7.58139535,4.97391304 C7.58139535,4.4173913 8.04651163,4 8.79069767,4 C9.44186047,4 10,4.48695652 10,4.97391304 C10,5.46086957 9.53488372,5.87826087 8.79069767,5.87826087 Z" id="100"></path>
                </g>
            </g>
        </g>
    </g>
</svg>