<?xml version="1.0" encoding="UTF-8"?>
<svg width="24px" height="24px" viewBox="0 0 24 24" version="1.1" xmlns="http://www.w3.org/2000/svg" xmlns:xlink="http://www.w3.org/1999/xlink">
    <!-- Generator: Sketch 49.1 (51147) - http://www.bohemiancoding.com/sketch -->
    <title>Combined Shape</title>
    <desc>Created with Sketch.</desc>
    <defs></defs>
    <g id="Flow" stroke="none" stroke-width="1" fill="none" fill-rule="evenodd">
        <g id="1-Selected" transform="translate(-560.000000, -481.000000)" fill="#FFFFFF">
            <g id="Group-2" transform="translate(555.000000, 328.000000)">
                <g id="selects">
                    <path d="M19,163.5 L19,159 L16,159 L16,163.5 L11.5,163.5 L11.5,166.5 L16,166.5 L16,171 L19,171 L19,166.5 L23.5,166.5 L23.5,163.5 L19,163.5 Z M17,177 C10.372583,177 5,171.627417 5,165 C5,158.372583 10.372583,153 17,153 C23.627417,153 29,158.372583 29,165 C29,171.627417 23.627417,177 17,177 Z" id="Combined-Shape" transform="translate(17.000000, 165.000000) rotate(-45.000000) translate(-17.000000, -165.000000) "></path>
                </g>
            </g>
        </g>
    </g>
</svg>