<?xml version="1.0" encoding="UTF-8"?>
<svg width="10px" height="10px" viewBox="0 0 10 10" version="1.1" xmlns="http://www.w3.org/2000/svg" xmlns:xlink="http://www.w3.org/1999/xlink">
    <!-- Generator: Sketch 49.2 (51160) - http://www.bohemiancoding.com/sketch -->
    <title>ActionIcon/Refresh</title>
    <desc>Created with Sketch.</desc>
    <defs>
        <path d="M4.64400541,1.35181049 C2.76098536,1.35181049 1.23454033,2.87841516 1.23454033,4.7615804 C1.23454033,6.64448072 2.76102527,8.17104548 4.64400541,8.17104548 C4.98491431,8.17104548 5.26127558,8.44740675 5.26127558,8.78831565 C5.26127558,9.12922455 4.98491431,9.40558581 4.64400541,9.40558581 C2.07919302,9.40558581 0,7.32628407 0,4.7615804 C0,2.19662626 2.07913866,0.117270165 4.64400541,0.117270165 C6.58874354,0.117270165 8.1470706,1.32150854 8.76545967,3.05922446 L8.76545967,0.617270165 C8.76545967,0.276361266 9.04182094,3.2632181e-17 9.38272984,0 C9.72363873,3.2632181e-17 10,0.276361266 10,0.617270165 L10,4.84967476 C10,5.19058366 9.72363873,5.46694492 9.38272984,5.46694492 L6,5.46694492 C5.6590911,5.46694492 5.38272984,5.19058366 5.38272984,4.84967476 C5.38272984,4.50876586 5.6590911,4.2324046 6,4.2324046 L7.78442994,4.2324046 C7.56365504,2.55840952 6.30023041,1.35181049 4.64400541,1.35181049 Z" id="path-1"></path>
    </defs>
    <g id="Flow" stroke="none" stroke-width="1" fill="none" fill-rule="evenodd">
        <g id="5A-Account" transform="translate(-945.000000, -1213.000000)">
            <g id="Group-3" transform="translate(181.000000, 1196.000000)">
                <g id="ActionIcon/Refresh" transform="translate(764.000000, 17.000000)">
                    <mask id="mask-2" fill="white">
                        <use xlink:href="#path-1"></use>
                    </mask>
                    <use id="Mask" fill="#6772E5" fill-rule="nonzero" xlink:href="#path-1"></use>
                </g>
            </g>
        </g>
    </g>
</svg>