<?xml version="1.0" encoding="UTF-8"?>
<svg width="8px" height="15px" viewBox="0 0 8 15" version="1.1" xmlns="http://www.w3.org/2000/svg" xmlns:xlink="http://www.w3.org/1999/xlink">
    <!-- Generator: Sketch 49.2 (51160) - http://www.bohemiancoding.com/sketch -->
    <title>Arrows</title>
    <desc>Created with Sketch.</desc>
    <defs></defs>
    <g id="Flow" stroke="none" stroke-width="1" fill="none" fill-rule="evenodd">
        <g id="1-Pricing" transform="translate(-470.000000, -751.000000)" fill="#525F7F">
            <g id="Group-3" transform="translate(221.000000, 737.000000)">
                <g id="Group-3-Copy" transform="translate(156.000000, 0.000000)">
                    <path d="M94.5228213,24.2437963 L96.0799967,25.6666667 C96.0799967,25.6666667 96.5471598,26.1733297 97,26.1733297 C97.4528402,26.1733297 97.9180501,25.6684163 97.9180501,25.6684163 L99.4771787,24.2437963 C99.8169019,23.9178222 100.384711,23.9168413 100.734295,24.2522768 C101.086316,24.5900509 101.087836,25.1277639 100.743133,25.4585157 L97.6249966,28.4228704 C97.4551012,28.5858898 97.2281616,28.6676287 97,28.6666581 C96.7718384,28.6676287 96.5448988,28.5858898 96.3750034,28.4228704 L93.2568666,25.4585157 C92.9121641,25.1277639 92.9136839,24.5900509 93.2657049,24.2522768 C93.6152886,23.9168413 94.1830981,23.9178222 94.5228213,24.2437963 Z M94.5228213,18.4228704 C94.1830981,18.7488444 93.6152886,18.7498253 93.2657049,18.4143898 C92.9136839,18.0766157 92.9121641,17.5389028 93.2568666,17.2081509 L96.3750034,14.2437963 C96.5448988,14.0807768 96.7718384,13.999038 97,14.0000085 C97.2281616,13.999038 97.4551012,14.0807768 97.6249966,14.2437963 L100.743133,17.2081509 C101.087836,17.5389028 101.086316,18.0766157 100.734295,18.4143898 C100.384711,18.7498253 99.8169019,18.7488444 99.4771787,18.4228704 L97.9180501,16.9982503 C97.9180501,16.9982503 97.4528402,16.493337 97,16.493337 C96.5471598,16.493337 96.0799967,17 96.0799967,17 L94.5228213,18.4228704 Z" id="Arrows"></path>
                </g>
            </g>
        </g>
    </g>
</svg>