<?xml version="1.0" encoding="UTF-8"?>
<svg width="20px" height="16px" viewBox="0 0 20 16" version="1.1" xmlns="http://www.w3.org/2000/svg" xmlns:xlink="http://www.w3.org/1999/xlink">
    <!-- Generator: Sketch 49.2 (51160) - http://www.bohemiancoding.com/sketch -->
    <title>Card_Visa Copy</title>
    <desc>Created with Sketch.</desc>
    <defs></defs>
    <g id="Flow" stroke="none" stroke-width="1" fill="none" fill-rule="evenodd">
        <g id="5A-Account" transform="translate(-450.000000, -419.000000)" fill="#FFFFFF">
            <g id="Card_Visa" transform="translate(450.000000, 417.000000)">
                <path d="M1.25,15 C1.25,15.6903559 1.80964406,16.25 2.5,16.25 L17.5,16.25 C18.1903559,16.25 18.75,15.6903559 18.75,15 L18.75,5 C18.75,4.30964406 18.1903559,3.75 17.5,3.75 L2.5,3.75 C1.80964406,3.75 1.25,4.30964406 1.25,5 L1.25,15 Z" id="1" fill="#F6F9FC" fill-rule="nonzero"></path>
                <path d="M1.25,15 C1.25,15.6903559 1.80964406,16.25 2.5,16.25 L17.5,16.25 C18.1903559,16.25 18.75,15.6903559 18.75,15 L18.75,5 C18.75,4.30964406 18.1903559,3.75 17.5,3.75 L2.5,3.75 C1.80964406,3.75 1.25,4.30964406 1.25,5 L1.25,15 Z M0,15 L0,5 C-1.69088438e-16,3.61928813 1.11928813,2.5 2.5,2.5 L17.5,2.5 C18.8807119,2.5 20,3.61928813 20,5 L20,15 C20,16.3807119 18.8807119,17.5 17.5,17.5 L2.5,17.5 C1.11928813,17.5 1.69088438e-16,16.3807119 0,15 Z" id="Shadow" fill="#E6EBF1" fill-rule="nonzero"></path>
                <path d="M2.84217094e-14,6.25 L2.84217094e-14,4.5 C2.82864387e-14,3.3954305 0.8954305,2.5 2,2.5 L18,2.5 C19.1045695,2.5 20,3.3954305 20,4.5 L20,6.25 L2.84217094e-14,6.25 Z M6,8.75 L14,8.75 C14.5522847,8.75 15,9.19771525 15,9.75 L15,10.25 C15,10.8022847 14.5522847,11.25 14,11.25 L6,11.25 C5.44771525,11.25 5,10.8022847 5,10.25 L5,9.75 C5,9.19771525 5.44771525,8.75 6,8.75 Z" id="Dark" fill="#1A1F71"></path>
                <path d="M0,17.5 L0,15.75 C-1.3527075e-16,14.6454305 0.8954305,13.75 2,13.75 L18,13.75 C19.1045695,13.75 20,14.6454305 20,15.75 L20,17.5 L0,17.5 Z" id="Yellow" fill="#F7B600" transform="translate(10.000000, 15.625000) scale(1, -1) translate(-10.000000, -15.625000) "></path>
            </g>
        </g>
    </g>
</svg>