<?xml version="1.0" encoding="UTF-8"?>
<svg width="49px" height="21px" viewBox="0 0 49 21" version="1.1" xmlns="http://www.w3.org/2000/svg" xmlns:xlink="http://www.w3.org/1999/xlink">
    <!-- Generator: Sketch 49.2 (51160) - http://www.bohemiancoding.com/sketch -->
    <title>Logo</title>
    <desc>Created with Sketch.</desc>
    <defs></defs>
    <g id="Flow" stroke="none" stroke-width="1" fill="none" fill-rule="evenodd">
        <g id="0-Default" transform="translate(-226.000000, -756.000000)" fill="#6772E5">
            <g id="Group-10" transform="translate(206.000000, 744.000000)">
                <path d="M62.2704057,21.5212122 C62.2704057,19.944091 63.2148791,19.2838388 64.0644832,19.2838388 C64.8991152,19.2838388 65.783972,19.945913 65.783972,21.5212122 L62.2704057,21.5212122 Z M69,22.8443795 C69,23.1828446 68.9693751,23.9159754 68.9539945,24.1051795 L62.3002139,24.1051795 C62.4522498,25.7450884 63.6192645,26.2284698 64.9438956,26.2284698 C66.2935712,26.2284698 67.3561889,25.935694 68.2825595,25.4541345 L68.2825595,28.273836 C67.3593194,28.8005242 66.1397659,29.1810346 64.5152825,29.1810346 C61.2050658,29.1810346 58.8850557,27.0459716 58.8850557,22.8255992 C58.8850557,19.2611343 60.8525386,16.430501 64.0861249,16.430501 C67.3148111,16.430501 69,19.2600131 69,22.8443795 Z M53.6299778,16.430487 C56.0170905,16.430487 58.2650979,18.6445953 58.2650979,22.7190703 C58.2650979,27.1660671 56.041046,29.1811607 53.6094251,29.1811607 C52.4200882,29.1811607 51.69312,28.6637226 51.2050263,28.2956856 L51.1979486,32.2560776 L47.7989876,33 L47.7977626,16.6632781 L50.7908409,16.6632781 L50.9676489,17.528151 C51.4376398,17.0761635 52.2977245,16.4306272 53.6299778,16.430487 Z M52.8178042,26.0888652 C54.0749243,26.0888652 54.9173146,24.6802057 54.9173146,22.7961535 C54.9173146,20.9652185 54.0614493,19.5307712 52.8178042,19.5307712 C52.0376166,19.5307712 51.5488424,19.8245281 51.1944097,20.2240991 L51.2146902,25.4248289 C51.5444869,25.7928659 52.0206027,26.0888652 52.8178042,26.0888652 Z M43.1118459,15.5971201 L43.1118459,12.7467255 L46.5238736,12 L46.5238736,14.8503946 L43.1118459,15.5971201 Z M43.1118051,28.9310049 L43.1118051,16.6632921 L46.5238327,16.6632921 L46.5238327,28.9310049 L43.1118051,28.9310049 Z M39.4563431,17.6979021 C40.251639,16.1918376 41.8404614,16.4969467 42.2933023,16.6645675 L42.2933023,19.8814575 C41.8606058,19.7376624 40.5046692,19.5281363 39.7016149,20.614308 L39.7016149,28.9310189 L36.3048317,28.9310189 L36.3048317,16.663166 L39.2433296,16.663166 L39.4563431,17.6979021 Z M32.640332,13.6244362 L32.6429181,16.663194 L35.2243971,16.663194 L35.2243971,19.6478535 L32.6429181,19.6478535 L32.6429181,24.6268642 C32.6429181,26.6897493 34.7877534,26.0475767 35.2231721,25.8683233 L35.2231721,28.7173164 C34.7697868,28.9732325 33.9490381,29.1810767 32.8378289,29.1810767 C30.8206656,29.1810767 29.3075209,27.6513266 29.3075209,25.5793316 L29.3219486,14.3506996 L32.640332,13.6244362 Z M23.4377526,20.2246457 C23.4377526,21.7996646 28.6332412,21.050977 28.6332412,25.2239783 C28.6332412,27.7431957 26.6859027,29.1811467 23.8599686,29.1811467 C22.6883261,29.1811467 21.4072504,28.9463935 20.143597,28.3866297 L20.143597,25.0451454 C21.2842062,25.6839544 22.737326,26.1627108 23.8630991,26.1627108 C24.6213729,26.1627108 25.1671775,25.9536053 25.1671775,25.3069478 C25.1671775,23.6360654 20,24.2653442 20,20.3908649 C20,17.9132724 21.8381775,16.4306132 24.5952396,16.4306132 C25.7210127,16.4306132 26.8467858,16.608465 27.9725589,17.0709639 L27.9725589,20.3668991 C26.9386607,19.7922793 25.6258712,19.4662876 24.592109,19.4662876 C23.8798408,19.4662876 23.4377526,19.6783364 23.4377526,20.2246457 Z" id="Logo"></path>
            </g>
        </g>
    </g>
</svg>